# xmcd CD database file
#
# Track frame offsets:
#	150
#	21995
#	47335
#	68111
#	89496
#	112156
#	156289
#
# Disc length: 2362 seconds
#
# Revision: 8
# Processed by: cddbd v1.5.2PL0 Copyright (c) Steve Scherf et al.
# Submitted via: CDex 1.70beta2
#
DISCID=59093807
DTITLE=Stephane Grapelli - Oscar Peterson - Stephane Grapelli quartet vol. 1
DYEAR=1973
DGENRE=Jazz
TTITLE0=Them There Eyes
TTITLE1=Flamingo
TTITLE2=Makin' Whoopee
TTITLE3=Looking At You
TTITLE4=Walkin' My Baby Back Home
TTITLE5=My One And Only Love
TTITLE6=Thou Swell
EXTD=YEAR: 1973
EXTT0=
EXTT1=
EXTT2=
EXTT3=
EXTT4=
EXTT5=
EXTT6=
PLAYORDER=
